<svg xmlns="http://www.w3.org/2000/svg" viewBox="0 0 1200 800" fill="none">
  <rect width="1200" height="800" fill="#f8fafc"/>
  <text x="60" y="60" font-family="system-ui" font-size="24" font-weight="700" fill="#0f172a">MERIDIAN — System Architecture</text>
  <text x="60" y="84" font-family="system-ui" font-size="14" fill="#64748b">Next.js 16 App Router · React 19 · TypeScript 5 · Tailwind CSS v4</text>

  <!-- Client Layer -->
  <rect x="60" y="120" width="1080" height="180" rx="12" fill="#ffffff" stroke="#e2e8f0" stroke-width="1"/>
  <rect x="60" y="120" width="1080" height="32" rx="12" fill="#f1f5f9"/>
  <rect x="60" y="140" width="1080" height="12" fill="#f1f5f9"/>
  <text x="540" y="140" font-family="system-ui" font-size="13" font-weight="600" fill="#64748b" text-anchor="middle">CLIENT LAYER — Browser</text>
  <!-- Client boxes -->
  <rect x="120" y="176" width="160" height="80" rx="8" fill="#eef2ff" stroke="#6366f1" stroke-width="1"/>
  <text x="200" y="206" font-family="system-ui" font-size="12" font-weight="600" fill="#6366f1" text-anchor="middle">Server Components</text>
  <text x="200" y="228" font-family="system-ui" font-size="10" fill="#6366f1" text-anchor="middle">RSC Payload Stream</text>
  <text x="200" y="244" font-family="system-ui" font-size="10" fill="#6366f1" text-anchor="middle">Zero JS by default</text>

  <rect x="320" y="176" width="160" height="80" rx="8" fill="#eef2ff" stroke="#6366f1" stroke-width="1"/>
  <text x="400" y="206" font-family="system-ui" font-size="12" font-weight="600" fill="#6366f1" text-anchor="middle">Client Components</text>
  <text x="400" y="228" font-family="system-ui" font-size="10" fill="#6366f1" text-anchor="middle">Interactive Islands</text>
  <text x="400" y="244" font-family="system-ui" font-size="10" fill="#6366f1" text-anchor="middle">Framer Motion / Tables</text>

  <rect x="520" y="176" width="160" height="80" rx="8" fill="#eef2ff" stroke="#6366f1" stroke-width="1"/>
  <text x="600" y="206" font-family="system-ui" font-size="12" font-weight="600" fill="#6366f1" text-anchor="middle">React Context</text>
  <text x="600" y="228" font-family="system-ui" font-size="10" fill="#6366f1" text-anchor="middle">Theme · Sidebar</text>
  <text x="600" y="244" font-family="system-ui" font-size="10" fill="#6366f1" text-anchor="middle">UI State</text>

  <rect x="720" y="176" width="160" height="80" rx="8" fill="#eef2ff" stroke="#6366f1" stroke-width="1"/>
  <text x="800" y="206" font-family="system-ui" font-size="12" font-weight="600" fill="#6366f1" text-anchor="middle">shadcn/ui Radix</text>
  <text x="800" y="228" font-family="system-ui" font-size="10" fill="#6366f1" text-anchor="middle">Accessible Primitives</text>
  <text x="800" y="244" font-family="system-ui" font-size="10" fill="#6366f1" text-anchor="middle">Dialog·Table·Select</text>

  <rect x="920" y="176" width="160" height="80" rx="8" fill="#eef2ff" stroke="#6366f1" stroke-width="1"/>
  <text x="1000" y="206" font-family="system-ui" font-size="12" font-weight="600" fill="#6366f1" text-anchor="middle">TanStack Table</text>
  <text x="1000" y="228" font-family="system-ui" font-size="10" fill="#6366f1" text-anchor="middle">Sorting · Filtering</text>
  <text x="1000" y="244" font-family="system-ui" font-size="10" fill="#6366f1" text-anchor="middle">Pagination · Virtual</text>

  <!-- Edge Layer -->
  <rect x="60" y="330" width="1080" height="100" rx="12" fill="#ffffff" stroke="#e2e8f0" stroke-width="1"/>
  <rect x="60" y="330" width="1080" height="32" rx="12" fill="#f1f5f9"/>
  <rect x="60" y="350" width="1080" height="12" fill="#f1f5f9"/>
  <text x="540" y="350" font-family="system-ui" font-size="13" font-weight="600" fill="#64748b" text-anchor="middle">EDGE / CDN LAYER</text>
  <rect x="120" y="378" width="220" height="36" rx="8" fill="#f8fafc" stroke="#e2e8f0" stroke-width="1"/>
  <text x="230" y="400" font-family="system-ui" font-size="12" fill="#475569" text-anchor="middle">Vercel Edge Network</text>
  <rect x="380" y="378" width="220" height="36" rx="8" fill="#f8fafc" stroke="#e2e8f0" stroke-width="1"/>
  <text x="490" y="400" font-family="system-ui" font-size="12" fill="#475569" text-anchor="middle">CDN Cache (Static Assets)</text>
  <rect x="640" y="378" width="220" height="36" rx="8" fill="#f8fafc" stroke="#e2e8f0" stroke-width="1"/>
  <text x="750" y="400" font-family="system-ui" font-size="12" fill="#475569" text-anchor="middle">Security Headers</text>
  <rect x="900" y="378" width="180" height="36" rx="8" fill="#f8fafc" stroke="#e2e8f0" stroke-width="1"/>
  <text x="990" y="400" font-family="system-ui" font-size="12" fill="#475569" text-anchor="middle">HSTS / CSP</text>

  <!-- Arrows down -->
  <line x1="200" y1="300" x2="200" y2="330" stroke="#6366f1" stroke-width="2" stroke-dasharray="4"/>
  <line x1="400" y1="300" x2="400" y2="330" stroke="#6366f1" stroke-width="2" stroke-dasharray="4"/>
  <line x1="600" y1="300" x2="600" y2="330" stroke="#6366f1" stroke-width="2" stroke-dasharray="4"/>
  <line x1="800" y1="300" x2="800" y2="330" stroke="#6366f1" stroke-width="2" stroke-dasharray="4"/>
  <line x1="1000" y1="300" x2="1000" y2="330" stroke="#6366f1" stroke-width="2" stroke-dasharray="4"/>

  <!-- Server Layer -->
  <rect x="60" y="460" width="1080" height="150" rx="12" fill="#ffffff" stroke="#e2e8f0" stroke-width="1"/>
  <rect x="60" y="460" width="1080" height="32" rx="12" fill="#f1f5f9"/>
  <rect x="60" y="480" width="1080" height="12" fill="#f1f5f9"/>
  <text x="540" y="480" font-family="system-ui" font-size="13" font-weight="600" fill="#64748b" text-anchor="middle">SERVER LAYER — Next.js 16 Runtime</text>

  <rect x="90" y="506" width="140" height="80" rx="8" fill="#f8fafc" stroke="#e2e8f0" stroke-width="1"/>
  <text x="160" y="534" font-family="system-ui" font-size="11" font-weight="600" fill="#475569" text-anchor="middle">App Router</text>
  <text x="160" y="552" font-family="system-ui" font-size="9" fill="#64748b" text-anchor="middle">File-based routing</text>
  <text x="160" y="568" font-family="system-ui" font-size="9" fill="#64748b" text-anchor="middle">Layout·Page·Loading</text>

  <rect x="260" y="506" width="140" height="80" rx="8" fill="#f8fafc" stroke="#e2e8f0" stroke-width="1"/>
  <text x="330" y="534" font-family="system-ui" font-size="11" font-weight="600" fill="#475569" text-anchor="middle">Server Actions</text>
  <text x="330" y="552" font-family="system-ui" font-size="9" fill="#64748b" text-anchor="middle">Mutations</text>
  <text x="330" y="568" font-family="system-ui" font-size="9" fill="#64748b" text-anchor="middle">Form handling</text>

  <rect x="430" y="506" width="140" height="80" rx="8" fill="#f8fafc" stroke="#e2e8f0" stroke-width="1"/>
  <text x="500" y="534" font-family="system-ui" font-size="11" font-weight="600" fill="#475569" text-anchor="middle">API Routes</text>
  <text x="500" y="552" font-family="system-ui" font-size="9" fill="#64748b" text-anchor="middle">REST endpoints</text>
  <text x="500" y="568" font-family="system-ui" font-size="9" fill="#64748b" text-anchor="middle">Webhooks</text>

  <rect x="600" y="506" width="140" height="80" rx="8" fill="#f8fafc" stroke="#e2e8f0" stroke-width="1"/>
  <text x="670" y="534" font-family="system-ui" font-size="11" font-weight="600" fill="#475569" text-anchor="middle">Middleware</text>
  <text x="670" y="552" font-family="system-ui" font-size="9" fill="#64748b" text-anchor="middle">Auth·Redirects</text>
  <text x="670" y="568" font-family="system-ui" font-size="9" fill="#64748b" text-anchor="middle">Rate limiting</text>

  <rect x="770" y="506" width="140" height="80" rx="8" fill="#f8fafc" stroke="#e2e8f0" stroke-width="1"/>
  <text x="840" y="534" font-family="system-ui" font-size="11" font-weight="600" fill="#475569" text-anchor="middle">ISR / SSG</text>
  <text x="840" y="552" font-family="system-ui" font-size="9" fill="#64748b" text-anchor="middle">Incremental Static</text>
  <text x="840" y="568" font-family="system-ui" font-size="9" fill="#64748b" text-anchor="middle">Regeneration</text>

  <rect x="940" y="506" width="170" height="80" rx="8" fill="#f8fafc" stroke="#e2e8f0" stroke-width="1"/>
  <text x="1025" y="534" font-family="system-ui" font-size="11" font-weight="600" fill="#475569" text-anchor="middle">Error Handling</text>
  <text x="1025" y="552" font-family="system-ui" font-size="9" fill="#64748b" text-anchor="middle">error.tsx · loading.tsx</text>
  <text x="1025" y="568" font-family="system-ui" font-size="9" fill="#64748b" text-anchor="middle">not-found.tsx</text>

  <!-- Arrow down -->
  <line x1="200" y1="430" x2="200" y2="460" stroke="#6366f1" stroke-width="2" stroke-dasharray="4"/>
  <line x1="500" y1="430" x2="500" y2="460" stroke="#6366f1" stroke-width="2" stroke-dasharray="4"/>
  <line x1="800" y1="430" x2="800" y2="460" stroke="#6366f1" stroke-width="2" stroke-dasharray="4"/>

  <!-- Data Layer -->
  <rect x="60" y="640" width="1080" height="130" rx="12" fill="#ffffff" stroke="#e2e8f0" stroke-width="1"/>
  <rect x="60" y="640" width="1080" height="32" rx="12" fill="#f1f5f9"/>
  <rect x="60" y="660" width="1080" height="12" fill="#f1f5f9"/>
  <text x="540" y="660" font-family="system-ui" font-size="13" font-weight="600" fill="#64748b" text-anchor="middle">DATA / INFRASTRUCTURE LAYER</text>
  <rect x="90" y="688" width="240" height="60" rx="8" fill="#f8fafc" stroke="#e2e8f0" stroke-width="1"/>
  <text x="210" y="714" font-family="system-ui" font-size="12" font-weight="500" fill="#475569" text-anchor="middle">PostgreSQL</text>
  <text x="210" y="734" font-family="system-ui" font-size="10" fill="#64748b" text-anchor="middle">Primary data store</text>
  <rect x="360" y="688" width="240" height="60" rx="8" fill="#f8fafc" stroke="#e2e8f0" stroke-width="1"/>
  <text x="480" y="714" font-family="system-ui" font-size="12" font-weight="500" fill="#475569" text-anchor="middle">Redis Cache</text>
  <text x="480" y="734" font-family="system-ui" font-size="10" fill="#64748b" text-anchor="middle">Session · Rate limiting</text>
  <rect x="630" y="688" width="240" height="60" rx="8" fill="#f8fafc" stroke="#e2e8f0" stroke-width="1"/>
  <text x="750" y="714" font-family="system-ui" font-size="12" font-weight="500" fill="#475569" text-anchor="middle">REST API / GraphQL</text>
  <text x="750" y="734" font-family="system-ui" font-size="10" fill="#64748b" text-anchor="middle">Backend services</text>
  <rect x="900" y="688" width="210" height="60" rx="8" fill="#f8fafc" stroke="#e2e8f0" stroke-width="1"/>
  <text x="1005" y="714" font-family="system-ui" font-size="12" font-weight="500" fill="#475569" text-anchor="middle">Observability</text>
  <text x="1005" y="734" font-family="system-ui" font-size="10" fill="#64748b" text-anchor="middle">Sentry · PostHog</text>
</svg>
