<svg xmlns="http://www.w3.org/2000/svg" viewBox="0 0 1200 800" fill="none">
  <rect width="1200" height="800" fill="#f8fafc"/>
  <!-- Sidebar -->
  <rect x="0" y="0" width="240" height="800" fill="#f1f5f9" rx="0"/>
  <rect x="16" y="24" width="48" height="48" rx="12" fill="#6366f1"/>
  <rect x="76" y="38" width="80" height="20" rx="4" fill="#1e293b"/>
  <rect x="16" y="96" width="208" height="1" fill="#e2e8f0"/>
  <!-- Nav items -->
  <rect x="16" y="120" width="208" height="40" rx="8" fill="#6366f1" opacity="0.1"/>
  <rect x="44" y="132" width="16" height="16" rx="4" fill="#6366f1"/>
  <rect x="72" y="133" width="80" height="14" rx="4" fill="#6366f1"/>
  <rect x="16" y="172" width="208" height="40" rx="8" fill="transparent"/>
  <rect x="44" y="184" width="16" height="16" rx="4" fill="#94a3b8"/>
  <rect x="72" y="185" width="72" height="14" rx="4" fill="#64748b"/>
  <rect x="16" y="224" width="208" height="40" rx="8" fill="transparent"/>
  <rect x="44" y="236" width="16" height="16" rx="4" fill="#94a3b8"/>
  <rect x="72" y="237" width="64" height="14" rx="4" fill="#64748b"/>
  <rect x="16" y="276" width="208" height="40" rx="8" fill="transparent"/>
  <rect x="44" y="288" width="16" height="16" rx="4" fill="#94a3b8"/>
  <rect x="72" y="289" width="88" height="14" rx="4" fill="#64748b"/>
  <rect x="16" y="328" width="208" height="40" rx="8" fill="transparent"/>
  <rect x="44" y="340" width="16" height="16" rx="4" fill="#94a3b8"/>
  <rect x="72" y="341" width="56" height="14" rx="4" fill="#64748b"/>
  <rect x="16" y="380" width="208" height="40" rx="8" fill="transparent"/>
  <rect x="44" y="392" width="16" height="16" rx="4" fill="#94a3b8"/>
  <rect x="72" y="393" width="96" height="14" rx="4" fill="#64748b"/>
  <rect x="16" y="432" width="208" height="40" rx="8" fill="transparent"/>
  <rect x="44" y="444" width="16" height="16" rx="4" fill="#94a3b8"/>
  <rect x="72" y="445" width="80" height="14" rx="4" fill="#64748b"/>
  <rect x="16" y="484" width="208" height="40" rx="8" fill="transparent"/>
  <rect x="44" y="496" width="16" height="16" rx="4" fill="#94a3b8"/>
  <rect x="72" y="497" width="64" height="14" rx="4" fill="#64748b"/>
  <rect x="16" y="534" width="208" height="40" rx="8" fill="transparent"/>
  <rect x="44" y="546" width="16" height="16" rx="4" fill="#94a3b8"/>
  <rect x="72" y="547" width="68" height="14" rx="4" fill="#64748b"/>
  <!-- Main content -->
  <!-- Top bar -->
  <rect x="240" y="0" width="960" height="64" fill="#ffffff" rx="0"/>
  <rect x="264" y="0" width="1" height="64" fill="#e2e8f0"/>
  <text x="280" y="40" font-family="system-ui" font-size="18" font-weight="600" fill="#0f172a">Dashboard</text>
  <rect x="1008" y="20" width="36" height="24" rx="6" fill="#f1f5f9"/>
  <rect x="1016" y="28" width="20" height="8" rx="2" fill="#6366f1"/>
  <rect x="1060" y="16" width="32" height="32" rx="16" fill="#6366f1"/>
  <rect x="1070" y="26" width="12" height="12" rx="6" fill="#ffffff"/>
  <!-- KPI Cards -->
  <rect x="264" y="88" width="212" height="120" rx="12" fill="#ffffff" stroke="#e2e8f0" stroke-width="1"/>
  <rect x="284" y="104" width="40" height="40" rx="10" fill="#eef2ff"/>
  <rect x="296" y="116" width="16" height="16" rx="4" fill="#6366f1"/>
  <text x="340" y="120" font-family="system-ui" font-size="13" fill="#64748b">Total Products</text>
  <text x="284" y="160" font-family="system-ui" font-size="28" font-weight="700" fill="#0f172a">2,847</text>
  <rect x="284" y="175" width="60" height="18" rx="9" fill="#dcfce7"/>
  <text x="290" y="188" font-family="system-ui" font-size="10" fill="#166534">+12.5%</text>

  <rect x="492" y="88" width="212" height="120" rx="12" fill="#ffffff" stroke="#e2e8f0" stroke-width="1"/>
  <rect x="512" y="104" width="40" height="40" rx="10" fill="#eef2ff"/>
  <rect x="524" y="116" width="16" height="16" rx="4" fill="#6366f1"/>
  <text x="568" y="120" font-family="system-ui" font-size="13" fill="#64748b">Active Vendors</text>
  <text x="512" y="160" font-family="system-ui" font-size="28" font-weight="700" fill="#0f172a">48</text>
  <rect x="512" y="175" width="48" height="18" rx="9" fill="#dcfce7"/>
  <text x="518" y="188" font-family="system-ui" font-size="10" fill="#166534">+3.2%</text>

  <rect x="720" y="88" width="212" height="120" rx="12" fill="#ffffff" stroke="#e2e8f0" stroke-width="1"/>
  <rect x="740" y="104" width="40" height="40" rx="10" fill="#fef2f2"/>
  <rect x="752" y="116" width="16" height="16" rx="4" fill="#ef4444"/>
  <text x="796" y="120" font-family="system-ui" font-size="13" fill="#64748b">Low Stock Items</text>
  <text x="740" y="160" font-family="system-ui" font-size="28" font-weight="700" fill="#0f172a">23</text>
  <rect x="740" y="175" width="44" height="18" rx="9" fill="#fef2f2"/>
  <text x="746" y="188" font-family="system-ui" font-size="10" fill="#991b1b">+5 alerts</text>

  <rect x="948" y="88" width="212" height="120" rx="12" fill="#ffffff" stroke="#e2e8f0" stroke-width="1"/>
  <rect x="968" y="104" width="40" height="40" rx="10" fill="#eef2ff"/>
  <rect x="980" y="116" width="16" height="16" rx="4" fill="#6366f1"/>
  <text x="1024" y="120" font-family="system-ui" font-size="13" fill="#64748b">Pending Orders</text>
  <text x="968" y="160" font-family="system-ui" font-size="28" font-weight="700" fill="#0f172a">156</text>
  <rect x="968" y="175" width="56" height="18" rx="9" fill="#fef9c3"/>
  <text x="974" y="188" font-family="system-ui" font-size="10" fill="#854d0e">$48.2K</text>

  <!-- Orders Table -->
  <rect x="264" y="228" width="648" height="360" rx="12" fill="#ffffff" stroke="#e2e8f0" stroke-width="1"/>
  <text x="284" y="260" font-family="system-ui" font-size="15" font-weight="600" fill="#0f172a">Recent Orders</text>
  <!-- Table header -->
  <rect x="264" y="276" width="648" height="40" fill="#f8fafc"/>
  <text x="284" y="300" font-family="system-ui" font-size="11" font-weight="600" fill="#64748b">ORDER</text>
  <text x="404" y="300" font-family="system-ui" font-size="11" font-weight="600" fill="#64748b">VENDOR</text>
  <text x="564" y="300" font-family="system-ui" font-size="11" font-weight="600" fill="#64748b">STATUS</text>
  <text x="700" y="300" font-family="system-ui" font-size="11" font-weight="600" fill="#64748b">AMOUNT</text>
  <rect x="264" y="316" width="648" height="1" fill="#e2e8f0"/>
  <!-- Row 1 -->
  <rect x="264" y="317" width="648" height="48" fill="#ffffff"/>
  <text x="284" y="345" font-family="system-ui" font-size="13" fill="#0f172a">#ORD-2026-0042</text>
  <text x="404" y="345" font-family="system-ui" font-size="13" fill="#475569">Acme Supply Co.</text>
  <rect x="564" y="334" width="68" height="22" rx="6" fill="#dcfce7"/>
  <text x="570" y="348" font-family="system-ui" font-size="11" fill="#166534">Fulfilled</text>
  <text x="700" y="345" font-family="system-ui" font-size="13" font-weight="600" fill="#0f172a">$12,450</text>
  <rect x="264" y="365" width="648" height="1" fill="#f1f5f9"/>
  <!-- Row 2 -->
  <rect x="264" y="366" width="648" height="48" fill="#ffffff"/>
  <text x="284" y="394" font-family="system-ui" font-size="13" fill="#0f172a">#ORD-2026-0041</text>
  <text x="404" y="394" font-family="system-ui" font-size="13" fill="#475569">Global Parts Inc.</text>
  <rect x="564" y="383" width="60" height="22" rx="6" fill="#fef9c3"/>
  <text x="570" y="397" font-family="system-ui" font-size="11" fill="#854d0e">Pending</text>
  <text x="700" y="394" font-family="system-ui" font-size="13" font-weight="600" fill="#0f172a">$8,320</text>
  <rect x="264" y="414" width="648" height="1" fill="#f1f5f9"/>
  <!-- Row 3 -->
  <rect x="264" y="415" width="648" height="48" fill="#ffffff"/>
  <text x="284" y="443" font-family="system-ui" font-size="13" fill="#0f172a">#ORD-2026-0040</text>
  <text x="404" y="443" font-family="system-ui" font-size="13" fill="#475569">Quality Materials Ltd.</text>
  <rect x="564" y="432" width="72" height="22" rx="6" fill="#dbeafe"/>
  <text x="570" y="446" font-family="system-ui" font-size="11" fill="#1e40af">Shipped</text>
  <text x="700" y="443" font-family="system-ui" font-size="13" font-weight="600" fill="#0f172a">$24,100</text>
  <rect x="264" y="463" width="648" height="1" fill="#f1f5f9"/>
  <!-- Row 4 -->
  <rect x="264" y="464" width="648" height="48" fill="#ffffff"/>
  <text x="284" y="492" font-family="system-ui" font-size="13" fill="#0f172a">#ORD-2026-0039</text>
  <text x="404" y="492" font-family="system-ui" font-size="13" fill="#475569">Industrial Supply Co.</text>
  <rect x="564" y="481" width="68" height="22" rx="6" fill="#dcfce7"/>
  <text x="570" y="495" font-family="system-ui" font-size="11" fill="#166534">Fulfilled</text>
  <text x="700" y="492" font-family="system-ui" font-size="13" font-weight="600" fill="#0f172a">$6,780</text>
  <rect x="264" y="512" width="648" height="1" fill="#f1f5f9"/>
  <!-- Row 5 -->
  <rect x="264" y="513" width="648" height="48" fill="#f8fafc"/>
  <text x="284" y="541" font-family="system-ui" font-size="13" fill="#0f172a">#ORD-2026-0038</text>
  <text x="404" y="541" font-family="system-ui" font-size="13" fill="#475569">Parts Distributor LLC</text>
  <rect x="564" y="530" width="44" height="22" rx="6" fill="#fef2f2"/>
  <text x="570" y="544" font-family="system-ui" font-size="11" fill="#991b1b">Lost</text>
  <text x="700" y="541" font-family="system-ui" font-size="13" font-weight="600" fill="#0f172a">$3,200</text>

  <!-- Vendor Performance Chart -->
  <rect x="928" y="228" width="252" height="180" rx="12" fill="#ffffff" stroke="#e2e8f0" stroke-width="1"/>
  <text x="948" y="260" font-family="system-ui" font-size="15" font-weight="600" fill="#0f172a">Vendor Performance</text>
  <!-- Simple bar chart -->
  <rect x="960" y="290" width="32" height="80" rx="4" fill="#6366f1" opacity="0.8"/>
  <rect x="1004" y="310" width="32" height="60" rx="4" fill="#6366f1" opacity="0.6"/>
  <rect x="1048" y="280" width="32" height="90" rx="4" fill="#6366f1" opacity="0.9"/>
  <rect x="1092" y="320" width="32" height="50" rx="4" fill="#6366f1" opacity="0.5"/>
  <rect x="1136" y="300" width="32" height="70" rx="4" fill="#6366f1" opacity="0.7"/>
  <rect x="960" y="370" width="208" height="1" fill="#e2e8f0"/>
  <text x="960" y="386" font-family="system-ui" font-size="9" fill="#94a3b8">Mon</text>
  <text x="1010" y="386" font-family="system-ui" font-size="9" fill="#94a3b8">Tue</text>
  <text x="1054" y="386" font-family="system-ui" font-size="9" fill="#94a3b8">Wed</text>
  <text x="1098" y="386" font-family="system-ui" font-size="9" fill="#94a3b8">Thu</text>
  <text x="1142" y="386" font-family="system-ui" font-size="9" fill="#94a3b8">Fri</text>

  <!-- Inventory Alerts -->
  <rect x="928" y="428" width="252" height="160" rx="12" fill="#ffffff" stroke="#e2e8f0" stroke-width="1"/>
  <text x="948" y="460" font-family="system-ui" font-size="15" font-weight="600" fill="#0f172a">Inventory Alerts</text>
  <rect x="948" y="478" width="8" height="8" rx="4" fill="#ef4444"/>
  <text x="966" y="486" font-family="system-ui" font-size="12" fill="#334155">Steel Brackets — 12 remaining</text>
  <rect x="948" y="502" width="8" height="8" rx="4" fill="#f59e0b"/>
  <text x="966" y="510" font-family="system-ui" font-size="12" fill="#334155">Circuit Boards — 28 remaining</text>
  <rect x="948" y="526" width="8" height="8" rx="4" fill="#f59e0b"/>
  <text x="966" y="534" font-family="system-ui" font-size="12" fill="#334155">Hydraulic Valves — 45 remaining</text>
  <rect x="948" y="550" width="8" height="8" rx="4" fill="#ef4444"/>
  <text x="966" y="558" font-family="system-ui" font-size="12" fill="#334155">Rubber Gaskets — 0 remaining</text>

  <!-- Bottom status bar -->
  <rect x="240" y="760" width="960" height="40" fill="#f1f5f9" rx="0"/>
  <text x="264" y="784" font-family="system-ui" font-size="11" fill="#64748b">MERIDIAN v1.0.0</text>
  <text x="1064" y="784" font-family="system-ui" font-size="11" fill="#64748b">Last updated: 2 min ago</text>
</svg>
