<svg xmlns="http://www.w3.org/2000/svg" viewBox="0 0 500 900" fill="none">
  <!-- Phone frame -->
  <rect x="20" y="20" width="460" height="860" rx="40" fill="#0f172a"/>
  <rect x="40" y="40" width="420" height="820" rx="30" fill="#f8fafc"/>
  <!-- Status bar -->
  <rect x="40" y="40" width="420" height="44" rx="30" fill="#ffffff"/>
  <rect x="220" y="54" width="60" height="6" rx="3" fill="#1e293b"/>
  <rect x="40" y="84" width="420" height="1" fill="#e2e8f0"/>
  <!-- Top nav -->
  <rect x="56" y="100" width="388" height="48" rx="12" fill="#ffffff"/>
  <rect x="56" y="112" width="24" height="24" rx="6" fill="#6366f1"/>
  <text x="90" y="129" font-family="system-ui" font-size="16" font-weight="600" fill="#0f172a">Dashboard</text>
  <rect x="400" y="112" width="24" height="24" rx="6" fill="#f1f5f9"/>
  <rect x="408" y="118" width="8" height="12" rx="2" fill="#6366f1"/>
  <!-- KPI cards - mobile stacked -->
  <rect x="56" y="164" width="388" height="72" rx="10" fill="#ffffff" stroke="#e2e8f0" stroke-width="1"/>
  <rect x="70" y="178" width="32" height="32" rx="8" fill="#eef2ff"/>
  <rect x="80" y="188" width="12" height="12" rx="3" fill="#6366f1"/>
  <text x="114" y="190" font-family="system-ui" font-size="12" fill="#64748b">Total Products</text>
  <text x="70" y="220" font-family="system-ui" font-size="20" font-weight="700" fill="#0f172a">2,847</text>
  <rect x="140" y="210" width="48" height="16" rx="8" fill="#dcfce7"/>
  <text x="146" y="222" font-family="system-ui" font-size="9" fill="#166534">+12.5%</text>

  <rect x="56" y="248" width="388" height="72" rx="10" fill="#ffffff" stroke="#e2e8f0" stroke-width="1"/>
  <rect x="70" y="262" width="32" height="32" rx="8" fill="#eef2ff"/>
  <rect x="80" y="272" width="12" height="12" rx="3" fill="#6366f1"/>
  <text x="114" y="274" font-family="system-ui" font-size="12" fill="#64748b">Pending Orders</text>
  <text x="70" y="304" font-family="system-ui" font-size="20" font-weight="700" fill="#0f172a">156</text>
  <rect x="140" y="294" width="48" height="16" rx="8" fill="#fef9c3"/>
  <text x="146" y="306" font-family="system-ui" font-size="9" fill="#854d0e">$48.2K</text>

  <rect x="56" y="332" width="388" height="72" rx="10" fill="#ffffff" stroke="#e2e8f0" stroke-width="1"/>
  <rect x="70" y="346" width="32" height="32" rx="8" fill="#fef2f2"/>
  <rect x="80" y="356" width="12" height="12" rx="3" fill="#ef4444"/>
  <text x="114" y="358" font-family="system-ui" font-size="12" fill="#64748b">Low Stock</text>
  <text x="70" y="388" font-family="system-ui" font-size="20" font-weight="700" fill="#0f172a">23</text>
  <rect x="140" y="378" width="48" height="16" rx="8" fill="#fef2f2"/>
  <text x="146" y="390" font-family="system-ui" font-size="9" fill="#991b1b">5 alerts</text>

  <!-- Section header -->
  <text x="56" y="438" font-family="system-ui" font-size="15" font-weight="600" fill="#0f172a">Recent Orders</text>
  <!-- Mobile order cards -->
  <rect x="56" y="452" width="388" height="80" rx="10" fill="#ffffff" stroke="#e2e8f0" stroke-width="1"/>
  <text x="70" y="474" font-family="system-ui" font-size="13" font-weight="600" fill="#0f172a">#ORD-2026-0042</text>
  <rect x="340" y="462" width="90" height="22" rx="6" fill="#dcfce7"/>
  <text x="346" y="477" font-family="system-ui" font-size="10" fill="#166534">Fulfilled</text>
  <text x="70" y="496" font-family="system-ui" font-size="12" fill="#64748b">Acme Supply Co.</text>
  <text x="340" y="496" font-family="system-ui" font-size="13" font-weight="600" fill="#0f172a">$12,450</text>
  <rect x="56" y="532" width="388" height="80" rx="10" fill="#ffffff" stroke="#e2e8f0" stroke-width="1"/>
  <text x="70" y="554" font-family="system-ui" font-size="13" font-weight="600" fill="#0f172a">#ORD-2026-0041</text>
  <rect x="340" y="542" width="90" height="22" rx="6" fill="#fef9c3"/>
  <text x="346" y="557" font-family="system-ui" font-size="10" fill="#854d0e">Pending</text>
  <text x="70" y="576" font-family="system-ui" font-size="12" fill="#64748b">Global Parts Inc.</text>
  <text x="340" y="576" font-family="system-ui" font-size="13" font-weight="600" fill="#0f172a">$8,320</text>
  <rect x="56" y="612" width="388" height="80" rx="10" fill="#ffffff" stroke="#e2e8f0" stroke-width="1"/>
  <text x="70" y="634" font-family="system-ui" font-size="13" font-weight="600" fill="#0f172a">#ORD-2026-0040</text>
  <rect x="340" y="622" width="90" height="22" rx="6" fill="#dbeafe"/>
  <text x="346" y="637" font-family="system-ui" font-size="10" fill="#1e40af">Shipped</text>
  <text x="70" y="656" font-family="system-ui" font-size="12" fill="#64748b">Quality Materials</text>
  <text x="340" y="656" font-family="system-ui" font-size="13" font-weight="600" fill="#0f172a">$24,100</text>

  <!-- Bottom nav bar -->
  <rect x="40" y="720" width="420" height="80" rx="0" fill="#ffffff"/>
  <rect x="40" y="720" width="420" height="1" fill="#e2e8f0"/>
  <rect x="80" y="738" width="24" height="24" rx="4" fill="#6366f1"/>
  <text x="92" y="770" font-family="system-ui" font-size="10" fill="#6366f1" text-anchor="middle">Home</text>
  <rect x="170" y="738" width="24" height="24" rx="4" fill="#94a3b8"/>
  <text x="182" y="770" font-family="system-ui" font-size="10" fill="#94a3b8" text-anchor="middle">Catalog</text>
  <rect x="260" y="738" width="24" height="24" rx="4" fill="#94a3b8"/>
  <text x="272" y="770" font-family="system-ui" font-size="10" fill="#94a3b8" text-anchor="middle">Orders</text>
  <rect x="350" y="738" width="24" height="24" rx="4" fill="#94a3b8"/>
  <text x="362" y="770" font-family="system-ui" font-size="10" fill="#94a3b8" text-anchor="middle">Profile</text>
  <!-- Home indicator -->
  <rect x="180" y="790" width="120" height="5" rx="3" fill="#1e293b"/>
</svg>
