<svg xmlns="http://www.w3.org/2000/svg" viewBox="0 0 1200 400" fill="none">
  <rect width="1200" height="400" fill="#f8fafc"/>
  <!-- Banner gradient overlay -->
  <rect x="0" y="0" width="1200" height="400" fill="url(#grad)" opacity="0.03"/>
  <defs>
    <linearGradient id="grad" x1="0" y1="0" x2="1200" y2="400">
      <stop offset="0%" stop-color="#6366f1"/>
      <stop offset="100%" stop-color="#4f46e5"/>
    </linearGradient>
  </defs>

  <!-- Left panel - dashboard preview -->
  <rect x="60" y="50" width="520" height="300" rx="16" fill="#ffffff" stroke="#e2e8f0" stroke-width="1"/>
  <!-- Mini top bar -->
  <rect x="60" y="50" width="520" height="40" rx="16" fill="#f8fafc"/>
  <rect x="60" y="74" width="520" height="16" fill="#f8fafc"/>
  <rect x="80" y="62" width="80" height="16" rx="4" fill="#6366f1"/>
  <rect x="460" y="62" width="24" height="16" rx="4" fill="#f1f5f9"/>
  <rect x="500" y="58" width="24" height="24" rx="12" fill="#6366f1"/>
  <!-- Mini KPI row -->
  <rect x="80" y="106" width="108" height="60" rx="8" fill="#f8fafc"/>
  <text x="90" y="126" font-family="system-ui" font-size="8" fill="#64748b">Products</text>
  <text x="90" y="150" font-family="system-ui" font-size="16" font-weight="700" fill="#0f172a">2.8K</text>
  <rect x="196" y="106" width="108" height="60" rx="8" fill="#f8fafc"/>
  <text x="206" y="126" font-family="system-ui" font-size="8" fill="#64748b">Vendors</text>
  <text x="206" y="150" font-family="system-ui" font-size="16" font-weight="700" fill="#0f172a">48</text>
  <rect x="312" y="106" width="108" height="60" rx="8" fill="#f8fafc"/>
  <text x="322" y="126" font-family="system-ui" font-size="8" fill="#64748b">Orders</text>
  <text x="322" y="150" font-family="system-ui" font-size="16" font-weight="700" fill="#0f172a">156</text>
  <rect x="428" y="106" width="132" height="60" rx="8" fill="#f8fafc"/>
  <text x="438" y="126" font-family="system-ui" font-size="8" fill="#64748b">Revenue</text>
  <text x="438" y="150" font-family="system-ui" font-size="16" font-weight="700" fill="#0f172a">$48.2K</text>
  <!-- Mini table -->
  <rect x="80" y="180" width="480" height="24" fill="#f1f5f9"/>
  <text x="90" y="196" font-family="system-ui" font-size="8" font-weight="600" fill="#64748b">ORDER</text>
  <text x="180" y="196" font-family="system-ui" font-size="8" font-weight="600" fill="#64748b">VENDOR</text>
  <text x="340" y="196" font-family="system-ui" font-size="8" font-weight="600" fill="#64748b">STATUS</text>
  <text x="420" y="196" font-family="system-ui" font-size="8" font-weight="600" fill="#64748b">AMOUNT</text>
  <rect x="80" y="204" width="480" height="20" fill="#ffffff"/>
  <text x="90" y="218" font-family="system-ui" font-size="8" fill="#334155">#ORD-0042</text>
  <text x="180" y="218" font-family="system-ui" font-size="8" fill="#475569">Acme Supply</text>
  <rect x="300" y="208" width="36" height="12" rx="3" fill="#dcfce7"/>
  <text x="304" y="217" font-family="system-ui" font-size="6" fill="#166534">Done</text>
  <text x="420" y="218" font-family="system-ui" font-size="8" fill="#0f172a">$12.4K</text>
  <rect x="80" y="224" width="480" height="20" fill="#ffffff"/>
  <text x="90" y="238" font-family="system-ui" font-size="8" fill="#334155">#ORD-0041</text>
  <text x="180" y="238" font-family="system-ui" font-size="8" fill="#475569">Global Parts</text>
  <rect x="300" y="228" width="30" height="12" rx="3" fill="#fef9c3"/>
  <text x="304" y="237" font-family="system-ui" font-size="6" fill="#854d0e">Wait</text>
  <text x="420" y="238" font-family="system-ui" font-size="8" fill="#0f172a">$8.3K</text>
  <rect x="80" y="244" width="480" height="20" fill="#f8fafc"/>
  <text x="90" y="258" font-family="system-ui" font-size="8" fill="#334155">#ORD-0040</text>
  <text x="180" y="258" font-family="system-ui" font-size="8" fill="#475569">Quality Mat.</text>
  <rect x="300" y="248" width="34" height="12" rx="3" fill="#dbeafe"/>
  <text x="304" y="257" font-family="system-ui" font-size="6" fill="#1e40af">Ship</text>
  <text x="420" y="258" font-family="system-ui" font-size="8" fill="#0f172a">$24.1K</text>

  <!-- Right panel - brand + features -->
  <text x="640" y="110" font-family="system-ui" font-size="28" font-weight="800" fill="#0f172a">MERIDIAN</text>
  <text x="640" y="138" font-family="system-ui" font-size="14" fill="#64748b">Procurement Ecosystem</text>

  <rect x="640" y="160" width="18" height="18" rx="4" fill="#eef2ff"/>
  <rect x="646" y="166" width="6" height="6" rx="1.5" fill="#6366f1"/>
  <text x="668" y="174" font-family="system-ui" font-size="12" fill="#334155">Catalog Management</text>

  <rect x="640" y="190" width="18" height="18" rx="4" fill="#eef2ff"/>
  <rect x="646" y="196" width="6" height="6" rx="1.5" fill="#6366f1"/>
  <text x="668" y="204" font-family="system-ui" font-size="12" fill="#334155">Vendor Relations</text>

  <rect x="640" y="220" width="18" height="18" rx="4" fill="#eef2ff"/>
  <rect x="646" y="226" width="6" height="6" rx="1.5" fill="#6366f1"/>
  <text x="668" y="234" font-family="system-ui" font-size="12" fill="#334155">Inventory Tracking</text>

  <rect x="640" y="250" width="18" height="18" rx="4" fill="#eef2ff"/>
  <rect x="646" y="256" width="6" height="6" rx="1.5" fill="#6366f1"/>
  <text x="668" y="264" font-family="system-ui" font-size="12" fill="#334155">Order Processing</text>

  <rect x="860" y="160" width="18" height="18" rx="4" fill="#eef2ff"/>
  <rect x="866" y="166" width="6" height="6" rx="1.5" fill="#6366f1"/>
  <text x="888" y="174" font-family="system-ui" font-size="12" fill="#334155">Procurement Workflow</text>

  <rect x="860" y="190" width="18" height="18" rx="4" fill="#eef2ff"/>
  <rect x="866" y="196" width="6" height="6" rx="1.5" fill="#6366f1"/>
  <text x="888" y="204" font-family="system-ui" font-size="12" fill="#334155">Warehouse Logistics</text>

  <rect x="860" y="220" width="18" height="18" rx="4" fill="#eef2ff"/>
  <rect x="866" y="226" width="6" height="6" rx="1.5" fill="#6366f1"/>
  <text x="888" y="234" font-family="system-ui" font-size="12" fill="#334155">Billing Automation</text>

  <!-- Tech badges -->
  <rect x="640" y="290" width="90" height="24" rx="6" fill="#1e293b"/>
  <text x="658" y="306" font-family="system-ui" font-size="10" fill="#f8fafc">Next.js 16</text>
  <rect x="740" y="290" width="80" height="24" rx="6" fill="#3178c6"/>
  <text x="754" y="306" font-family="system-ui" font-size="10" fill="#ffffff">TypeScript</text>
  <rect x="830" y="290" width="80" height="24" rx="6" fill="#06b6d4"/>
  <text x="844" y="306" font-family="system-ui" font-size="10" fill="#ffffff">Tailwind</text>
  <rect x="920" y="290" width="60" height="24" rx="6" fill="#6366f1"/>
  <text x="936" y="306" font-family="system-ui" font-size="10" fill="#ffffff">Radix</text>

  <text x="640" y="338" font-family="system-ui" font-size="11" fill="#94a3b8">Enterprise procurement platform · Clean commerce theme</text>

  <!-- Status line -->
  <rect x="0" y="380" width="1200" height="20" fill="#f1f5f9"/>
  <text x="24" y="394" font-family="system-ui" font-size="10" fill="#64748b">MERIDIAN v1.0.0 · Next.js 16 · React 19</text>
</svg>
